HIERARCHY
ROOT hip
{
	OFFSET 0.000000 0.000000 0.000000 
	CHANNELS 6 Xposition Yposition Zposition Xrotation Zrotation Yrotation
	JOINT abdomen
	{
		OFFSET 0.000000 3.402643 0.000000 
		CHANNELS 3 Xrotation Zrotation Yrotation
		JOINT chest
		{
			OFFSET 0.000000 8.438565 -0.680529 
			CHANNELS 3 Xrotation Zrotation Yrotation
			JOINT neck
			{
				OFFSET 0.000000 10.207942 -0.272212 
				CHANNELS 3 Xrotation Zrotation Yrotation
				JOINT head
				{
					OFFSET 0.000000 3.130431 0.000000 
					CHANNELS 3 Xrotation Zrotation Yrotation
					End Site
					{
						OFFSET 0.000000 3.130435 0.000000 
					}
				}
			}
			JOINT lCollar
			{
				OFFSET 3.470700 6.669187 -0.816635 
				CHANNELS 3 Yrotation Zrotation Xrotation
				JOINT lShldr
				{
					OFFSET 3.198488 0.000000 0.000000 
					CHANNELS 3 Zrotation Yrotation Xrotation
					JOINT lForeArm
					{
						OFFSET 10.139888 0.000000 0.000000 
						CHANNELS 3 Yrotation Zrotation Xrotation
						JOINT lHand
						{
							OFFSET 8.370511 0.000000 0.000000 
							CHANNELS 3 Zrotation Yrotation Xrotation
							End Site
							{
								OFFSET 4.083176 0.000000 0.000000 
							}
						}
					}
				}
			}
			JOINT rCollar
			{
				OFFSET -3.470700 6.669187 -0.816635 
				CHANNELS 3 Yrotation Zrotation Xrotation
				JOINT rShldr
				{
					OFFSET -3.198488 0.000000 0.000000 
					CHANNELS 3 Zrotation Yrotation Xrotation
					JOINT rForeArm
					{
						OFFSET -10.139888 0.000000 0.000000 
						CHANNELS 3 Yrotation Zrotation Xrotation
						JOINT rHand
						{
							OFFSET -8.370511 0.000000 0.000000 
							CHANNELS 3 Zrotation Yrotation Xrotation
							End Site
							{
								OFFSET -4.083176 0.000000 0.000000 
							}
						}
					}
				}
			}
		}
	}
	JOINT lThigh
	{
		OFFSET 5.308129 -1.633274 1.361059 
		CHANNELS 3 Xrotation Zrotation Yrotation
		JOINT lShin
		{
			OFFSET -2.041588 -20.007561 0.000000 
			CHANNELS 3 Xrotation Zrotation Yrotation
			JOINT lFoot
			{
				OFFSET 0.000000 -19.190928 -1.224953 
				CHANNELS 3 Xrotation Yrotation Zrotation
				End Site
				{
					OFFSET 0.000000 -2.449906 4.627600 
				}
			}
		}
	}
	JOINT rThigh
	{
		OFFSET -5.308129 -1.633274 1.361059 
		CHANNELS 3 Xrotation Zrotation Yrotation
		JOINT rShin
		{
			OFFSET 2.041588 -20.007561 0.000000 
			CHANNELS 3 Xrotation Zrotation Yrotation
			JOINT rFoot
			{
				OFFSET 0.000000 -19.190928 -1.224953 
				CHANNELS 3 Xrotation Yrotation Zrotation
				End Site
				{
					OFFSET 0.000000 -2.449906 4.627600 
				}
			}
		}
	}
}
MOTION
Frames: 18
Frame Time: 0.033333
12.993687 21.377588 12.993687 1.621094 0.000000 -0.019531 5.503325 -14.517118 7.670321 -18.788774 1.024951 7.366148 31.151243 6.168135 -1.437844 10.524219 0.508720 -0.030344 -6.391350 0.455010 10.187236 -72.657265 -31.049292 45.845566 -30.739662 -2.274990 2.263387 69.891068 -4.234249 -67.253922 -2.528292 11.381900 9.779967 88.684464 45.406338 88.501175 95.297173 3.197608 0.827087 8.959269 50.005257 34.961994 -18.993580 15.028621 14.300344 119.011658 4.840469 -3.663601 47.736553 -2.169826 4.376172 -11.981374 -21.050726 -14.393442 123.710556 -5.117182 3.416250 8.341951 19.136517 12.262691 
12.316307 21.955074 12.316307 1.621094 0.000000 -0.019531 3.300031 -16.188950 10.201974 -20.361252 1.503956 7.291062 35.466156 6.533975 -1.011566 10.524219 0.508720 -0.030344 -6.274816 0.519410 14.488467 -72.805588 -33.654388 49.224770 -29.650042 -2.247668 2.272473 71.420021 -3.244598 -65.476860 -3.251661 11.704624 14.157819 90.645752 47.133877 87.487999 94.900368 3.203332 0.834225 7.235883 50.584526 32.746422 -16.191536 16.865360 9.928165 115.889854 4.660222 -3.831860 46.258621 -7.736653 5.124683 -8.045857 -16.536579 -15.294884 120.920578 -4.970105 3.548833 5.770985 16.403214 14.597142 
10.794992 22.504705 10.794992 1.621094 0.000000 -0.019531 1.930403 -17.312151 12.258511 -21.758499 1.952770 7.205835 38.399338 6.649936 -0.717219 10.524219 0.508720 -0.030344 -6.136499 0.472385 17.400038 -73.208771 -35.226959 52.316772 -28.771029 -2.221354 2.282780 72.416817 -2.440999 -63.975540 -3.693660 11.796507 17.131964 93.069145 48.893124 87.092613 94.425484 3.200193 0.849468 4.024812 51.295193 28.745018 -13.885442 18.503819 6.350634 112.692497 4.488224 -3.945142 44.504490 -12.539738 5.091647 -4.970078 -12.659747 -15.669255 117.798347 -4.804380 3.704026 4.696143 13.999385 16.460218 
9.018262 22.993364 9.018262 1.621094 0.000000 -0.019531 1.648843 -17.853670 13.673063 -22.912157 2.371137 7.129959 39.643471 6.486575 -0.638819 10.524219 0.508720 -0.030344 -5.980615 0.264861 18.620100 -73.865700 -35.573448 54.968159 -28.142706 -2.204561 2.293762 72.755676 -1.870136 -62.863892 -3.784515 11.638532 18.384920 95.574280 50.366020 87.241089 93.856590 3.200357 0.866648 -0.324923 51.922092 23.363022 -12.351192 19.536724 4.208180 109.984879 4.303495 -4.061197 42.857555 -15.581190 4.434971 -3.153934 -9.953094 -15.530640 114.609154 -4.628891 3.847108 5.342930 12.406603 17.859735 
7.780107 23.287580 7.780107 1.621094 0.000000 -0.019531 3.293905 -17.383156 14.088126 -23.969032 2.846633 7.038555 38.148190 5.694619 -0.929394 10.524219 0.508720 -0.030344 -5.709770 -0.379734 17.082111 -75.317947 -34.130135 57.450497 -27.763683 -2.200763 2.296562 72.443504 -1.439890 -62.053177 -3.210716 10.931469 16.844400 97.285622 50.757542 87.489029 93.165695 3.193976 0.877201 -5.437377 52.268845 17.102312 -11.474865 20.029232 3.273377 107.971214 4.199029 -4.133760 41.100136 -17.070959 3.534406 -2.314008 -8.166650 -15.017578 111.343758 -4.423573 3.976956 7.580937 11.603332 19.016460 
6.664100 23.509737 6.664100 1.621094 0.000000 -0.019531 7.162806 -15.742469 13.511806 -25.037334 3.436907 6.920009 33.612362 4.073807 -1.552140 10.524219 0.508720 -0.030344 -5.342434 -1.617972 12.458316 -77.653854 -30.689877 59.634354 -27.573492 -2.190131 2.297382 71.628929 -1.059734 -61.324978 -1.943444 9.456880 12.219515 97.846916 49.602978 87.721703 92.346542 3.194446 0.903280 -10.839825 52.232090 10.500315 -10.751756 20.331285 2.704067 106.153885 4.069155 -4.210711 38.780117 -18.101284 2.403989 -1.826018 -6.694614 -14.223277 107.805939 -4.208503 4.101914 10.955512 11.283385 20.209892 
5.492562 23.653999 5.492562 3.613281 0.009746 -0.028681 12.546633 -13.148758 12.326441 -26.029440 4.073400 6.779730 26.840389 1.836460 -2.179162 10.524219 0.508720 -0.030344 -5.050521 -3.250121 5.537628 -80.210777 -25.688957 60.872871 -27.543112 -2.192853 2.293541 70.361069 -0.724540 -60.678253 -0.354561 7.340167 5.363484 97.850212 47.095291 88.481178 91.368134 3.193339 0.927887 -15.963808 51.821117 4.221087 -10.155690 20.476948 2.440274 104.464211 3.961899 -4.259542 36.046253 -18.688572 1.088011 -1.630595 -5.495568 -13.250900 104.044502 -3.973908 4.232198 15.192769 11.347789 21.370358 
4.221104 23.704033 4.221104 6.337891 0.019412 -0.046669 18.774326 -9.861226 10.887172 -26.876898 4.717616 6.647848 18.638435 -0.779965 -2.496613 10.524219 0.508720 -0.030344 -4.940821 -5.067732 -2.870869 -82.541847 -19.688862 60.862328 -27.643806 -2.192991 2.299169 68.715965 -0.404253 -60.130875 1.232756 4.735097 -2.859570 97.848694 43.464584 90.107162 90.210899 3.189770 0.963467 -20.351624 51.171364 -1.184264 -9.658488 20.478386 2.443320 102.775024 3.858020 -4.296688 33.076176 -18.902122 -0.329689 -1.689203 -4.538020 -12.177517 100.090469 -3.690989 4.350282 20.037432 11.746743 22.497034 
2.955174 23.609659 2.955174 9.726563 0.028876 -0.063405 25.229197 -6.194084 9.480525 -27.490458 5.283839 6.528183 9.743546 -3.449620 -2.351965 10.524219 0.508720 -0.030344 -5.092291 -6.839790 -11.997383 -84.408302 -13.274300 59.608421 -27.872515 -2.201075 2.290600 66.755814 -0.129085 -59.648819 2.539858 1.883028 -11.671998 98.109894 39.082409 92.589874 88.859421 3.181922 1.000945 -23.629967 50.499054 -5.246964 -9.257079 20.358744 2.602005 100.968391 3.728020 -4.365376 30.052290 -18.729527 -1.776332 -1.933126 -3.776985 -11.083457 95.962685 -3.408063 4.432942 25.275036 12.349216 23.537981 
1.844726 23.332069 1.844726 13.691414 0.056929 -0.074012 31.400982 -2.514619 8.232064 -27.790337 5.745541 6.432912 0.871417 -5.830569 -1.722730 10.524219 0.508720 -0.030344 -5.445289 -8.338177 -21.071491 -85.708809 -7.017217 57.497517 -28.182636 -2.210016 2.291605 64.574852 0.145900 -59.236290 3.462846 -0.895826 -20.357536 98.534889 34.380482 95.543533 87.287491 3.175524 1.044520 -25.511690 50.031815 -7.606433 -8.925529 20.155138 2.928359 98.967552 3.591752 -4.410493 27.187731 -18.323238 -3.155234 -2.301368 -3.177114 -10.045550 91.698181 -3.125074 4.531163 30.627129 13.014187 24.524351 
1.089617 22.832329 1.089617 18.144548 0.074240 -0.092846 36.769913 0.786104 7.120714 -27.695688 6.018100 6.398236 -7.133327 -7.581594 -0.829348 10.524219 0.508720 -0.030344 -5.905941 -9.348082 -25.000000 -86.451431 -1.365046 55.074944 -28.561550 -2.221886 2.283942 62.223072 0.411539 -58.879578 3.976361 -3.206300 -25.000000 99.223824 30.098232 98.623871 85.565659 3.169222 1.086129 -26.498114 49.777607 -8.852323 -8.632298 19.871267 3.338910 96.663994 3.435901 -4.471677 24.614159 -17.705118 -4.444432 -2.762919 -2.704047 -9.120667 87.319984 -2.802540 4.588072 35.906071 13.604573 25.342627 
0.623227 22.021738 0.623227 22.968786 0.098905 -0.104548 40.855846 3.267681 6.029799 -27.126656 6.064029 6.424956 -13.516218 -8.488894 -0.009864 10.524219 0.508720 -0.030344 -6.335797 -9.712652 -25.000000 -86.573318 3.256569 52.926514 -28.991545 -2.227867 2.285412 59.778786 0.667737 -58.559254 4.185712 -4.689651 -25.000000 100.292023 26.973686 101.418533 83.775162 3.160054 1.144634 -27.269409 49.561523 -9.828610 -8.368462 19.538359 3.784777 93.971085 3.260878 -4.514321 22.494970 -16.936558 -5.649952 -3.239898 -2.331723 -8.401000 82.864296 -2.499591 4.616511 40.861561 13.956864 26.071787 
0.295642 20.961138 0.295642 28.037188 0.129293 -0.126437 43.986748 5.086728 4.606330 -25.749180 5.796828 6.537375 -18.734226 -8.578409 0.586108 10.524219 0.508720 -0.030344 -6.655938 -9.380412 -25.000000 -86.248711 6.770308 50.885193 -29.431049 -2.241025 2.280259 57.300186 0.914125 -58.284027 4.281459 -5.317953 -25.000000 101.664154 25.036255 104.139351 81.920769 3.152351 1.191480 -27.864450 49.399738 -10.571543 -8.104002 19.175371 4.209220 90.741524 3.046723 -4.578845 20.999716 -16.121784 -6.733068 -3.684470 -2.035565 -7.921186 78.361389 -2.177263 4.625871 45.302238 13.940665 26.683672 
0.056895 19.667574 0.056895 33.242352 0.171519 -0.131692 46.794762 6.690740 2.700175 -23.537809 5.246989 6.740892 -23.763544 -8.111261 0.963306 10.524219 0.508720 -0.030344 -6.910084 -8.494180 -25.000000 -85.686592 9.512403 48.494564 -29.869022 -2.254050 2.264930 54.874222 1.171011 -58.028748 4.331673 -5.392166 -25.000000 103.332794 23.765280 107.118896 80.015427 3.133892 1.242592 -28.270746 49.270260 -11.086300 -7.830691 18.824383 4.544101 86.889359 2.783358 -4.623929 20.240993 -15.320213 -7.781705 -4.045935 -1.772989 -7.774029 73.838692 -1.854826 4.640186 48.979004 13.367743 27.151707 
-0.048599 18.007311 -0.048599 38.476841 0.198774 -0.144722 49.204800 8.142725 0.448524 -20.781879 4.482453 6.956640 -28.471481 -7.262712 1.073544 10.524219 0.508720 -0.030344 -7.068936 -7.213712 -25.000000 -84.996819 11.713155 45.727280 -30.279625 -2.258569 2.268868 52.559837 1.422459 -57.791515 4.371532 -5.036131 -25.000000 105.201561 22.895180 110.265244 78.057487 3.120566 1.290797 -28.539873 49.193420 -11.427917 -7.526864 18.497805 4.751237 82.346649 2.432381 -4.678358 20.412758 -14.553666 -8.757109 -4.265697 -1.551720 -8.023797 69.318016 -1.522894 4.601463 51.681900 12.117539 27.435226 
0.012476 15.914104 0.012476 43.691860 0.233020 -0.148442 51.190388 9.469287 -2.012848 -17.797249 3.599349 7.157296 -32.749516 -6.215829 0.898741 10.524219 0.508720 -0.030344 -7.154048 -5.698877 -25.000000 -84.272942 13.578381 42.528160 -30.629480 -2.268454 2.264861 50.424492 1.693299 -57.555004 4.396184 -4.377638 -25.000000 107.194710 22.164244 113.519867 76.051865 3.104938 1.345102 -28.664816 49.157669 -11.591531 -7.196512 18.131872 4.920409 76.791901 2.033428 -4.669860 21.780399 -13.805269 -9.668602 -4.420918 -1.473063 -8.773864 64.718941 -1.200696 4.543422 53.293659 10.121277 27.347803 
0.195701 13.565632 0.195701 48.916744 0.269539 -0.149785 52.716679 10.685754 -4.548482 -14.876548 2.682065 7.318544 -36.525650 -5.124655 0.505017 10.524219 0.508720 -0.030344 -7.169301 -4.110580 -25.000000 -83.619652 15.289655 38.872063 -30.909044 -2.276052 2.259393 48.546406 1.974639 -57.311993 4.424136 -3.553098 -25.000000 109.193695 21.374973 116.676735 74.010628 3.083006 1.402348 -28.698450 49.140987 -11.626134 -6.941290 17.678978 5.118722 70.126381 1.575682 -4.623776 24.349916 -12.956147 -10.448801 -4.599017 -1.630752 -10.040833 59.945168 -0.868803 4.437273 53.924931 7.485355 26.736013 
0.440001 11.250273 0.440001 54.141735 0.303193 -0.156647 53.737385 11.777854 -7.026268 -12.329763 1.826690 7.413318 -39.668308 -4.127828 -0.031928 10.524219 0.508720 -0.030344 -7.152919 -2.606846 -25.000000 -83.109459 17.018709 34.847740 -31.089478 -2.283966 2.258877 47.003895 2.276364 -57.034306 4.440024 -2.687463 -25.000000 111.058266 20.334873 119.570900 71.933662 3.062653 1.454397 -28.617109 49.171589 -11.532212 -6.707267 17.162323 5.342831 62.585365 1.039537 -4.510685 27.928255 -12.009755 -11.052954 -4.811437 -1.989929 -11.734921 55.024410 -0.536951 4.306939 53.691681 4.549753 25.519243 
